<svg xmlns="http://www.w3.org/2000/svg" xmlns:xlink="http://www.w3.org/1999/xlink" width="500" zoomAndPan="magnify" viewBox="0 0 375 374.999991" height="500" preserveAspectRatio="xMidYMid meet" version="1.0"><defs><clipPath id="edc3cce55e"><path d="M 31 124.589844 L 212 124.589844 L 212 238 L 31 238 Z M 31 124.589844 " clip-rule="nonzero"/></clipPath><clipPath id="3416ad1c35"><path d="M 7.761719 129 L 367.011719 129 L 367.011719 250.589844 L 7.761719 250.589844 Z M 7.761719 129 " clip-rule="nonzero"/></clipPath></defs><g clip-path="url(#edc3cce55e)"><path fill="#ffffff" d="M 211 135.09375 C 210.683594 133.492188 210.089844 132 209.222656 130.613281 C 208.785156 129.917969 208.28125 129.273438 207.707031 128.679688 C 207.132812 128.089844 206.503906 127.566406 205.820312 127.109375 C 204.460938 126.214844 202.988281 125.59375 201.398438 125.246094 C 198.269531 124.578125 195.210938 124.8125 192.21875 125.949219 C 190.75 126.5 189.394531 127.257812 188.152344 128.21875 C 186.953125 129.167969 185.882812 130.253906 184.945312 131.464844 C 183.132812 133.878906 181.835938 136.546875 181.054688 139.464844 C 180.976562 139.75 180.902344 140.035156 180.835938 140.324219 C 180.421875 139.300781 179.933594 138.308594 179.375 137.355469 C 177.453125 134.113281 174.554688 131.296875 170.832031 130.03125 C 168.976562 129.417969 167.074219 129.191406 165.125 129.355469 C 163.179688 129.503906 161.351562 130.050781 159.644531 130.996094 C 157.886719 131.964844 156.523438 133.328125 155.546875 135.078125 C 154.667969 136.78125 154.136719 138.589844 153.945312 140.496094 C 153.761719 142.351562 153.824219 144.195312 154.140625 146.035156 C 154.441406 147.855469 154.949219 149.613281 155.664062 151.316406 C 156.367188 153.019531 157.269531 154.609375 158.375 156.085938 C 159.476562 157.546875 160.71875 158.875 162.109375 160.066406 C 164.855469 162.445312 167.96875 164.296875 171.15625 165.925781 C 174.339844 167.554688 177.617188 168.949219 180.894531 170.355469 L 181.121094 169.847656 C 177.890625 168.355469 174.660156 166.867188 171.554688 165.171875 C 168.445312 163.476562 165.46875 161.5625 162.890625 159.203125 C 161.601562 158.03125 160.445312 156.738281 159.429688 155.324219 C 158.417969 153.914062 157.601562 152.398438 156.980469 150.78125 C 156.347656 149.171875 155.910156 147.507812 155.667969 145.792969 C 155.417969 144.09375 155.398438 142.394531 155.613281 140.691406 C 155.71875 139.851562 155.898438 139.027344 156.152344 138.222656 C 156.214844 138.011719 156.277344 137.824219 156.359375 137.628906 C 156.445312 137.433594 156.507812 137.238281 156.589844 137.050781 C 156.671875 136.859375 156.757812 136.671875 156.847656 136.484375 C 156.941406 136.300781 157.027344 136.121094 157.128906 135.949219 C 157.964844 134.527344 159.117188 133.4375 160.582031 132.675781 C 162.058594 131.910156 163.625 131.484375 165.285156 131.398438 C 166.941406 131.296875 168.550781 131.523438 170.113281 132.078125 C 170.878906 132.351562 171.601562 132.707031 172.285156 133.144531 C 172.980469 133.589844 173.628906 134.089844 174.230469 134.648438 C 175.445312 135.792969 176.457031 137.097656 177.265625 138.558594 C 178.894531 141.476562 179.753906 144.835938 179.929688 148.199219 L 182.625 148.125 C 182.675781 145.445312 183.078125 142.820312 183.828125 140.246094 C 184.554688 137.71875 185.730469 135.417969 187.34375 133.34375 C 188.140625 132.355469 189.042969 131.472656 190.054688 130.703125 C 191.058594 129.964844 192.144531 129.390625 193.324219 128.980469 C 195.714844 128.128906 198.144531 127.988281 200.617188 128.5625 C 201.78125 128.839844 202.859375 129.320312 203.84375 129.996094 C 204.320312 130.328125 204.753906 130.703125 205.144531 131.125 C 205.542969 131.546875 205.890625 132.007812 206.1875 132.503906 C 207.398438 134.496094 207.769531 136.972656 207.566406 139.484375 C 207.363281 142 206.636719 144.554688 205.632812 146.988281 C 204.589844 149.5 203.40625 151.945312 202.089844 154.324219 C 199.488281 159.089844 196.300781 163.421875 192.527344 167.328125 C 192.054688 167.796875 191.578125 168.269531 191.09375 168.730469 L 190.351562 169.410156 L 189.984375 169.75 L 189.59375 170.09375 C 188.550781 171.011719 187.507812 171.921875 186.457031 172.832031 C 184.355469 174.636719 182.234375 176.425781 180.09375 178.203125 C 171.527344 185.269531 162.667969 191.9375 153.503906 198.210938 C 144.367188 204.476562 135.019531 210.417969 125.402344 215.847656 C 120.59375 218.558594 115.71875 221.144531 110.742188 223.480469 C 108.257812 224.65625 105.742188 225.773438 103.214844 226.789062 C 100.6875 227.804688 98.121094 228.757812 95.535156 229.558594 C 94.242188 229.957031 92.953125 230.324219 91.644531 230.632812 L 89.632812 231.089844 L 87.613281 231.519531 C 84.921875 232.070312 82.21875 232.5625 79.488281 232.933594 C 74.046875 233.726562 68.574219 234.070312 63.078125 233.964844 C 60.335938 233.898438 57.605469 233.6875 54.886719 233.328125 C 52.160156 232.980469 49.472656 232.445312 46.820312 231.722656 C 44.160156 231 41.570312 230.082031 39.054688 228.964844 C 37.800781 228.382812 36.550781 227.789062 35.355469 227.105469 C 34.160156 226.425781 32.972656 225.695312 31.8125 224.933594 L 31.480469 225.375 C 32.566406 226.261719 33.683594 227.128906 34.859375 227.910156 C 36.035156 228.691406 37.238281 229.4375 38.472656 230.128906 C 40.964844 231.496094 43.554688 232.644531 46.242188 233.582031 C 51.605469 235.46875 57.25 236.53125 62.914062 237 C 68.59375 237.441406 74.269531 237.382812 79.941406 236.820312 C 82.765625 236.542969 85.582031 236.179688 88.382812 235.730469 L 90.476562 235.371094 L 92.558594 234.980469 C 93.980469 234.710938 95.398438 234.386719 96.789062 234.019531 C 102.355469 232.542969 107.6875 230.519531 112.890625 228.273438 C 118.097656 226.023438 123.164062 223.496094 128.128906 220.804688 C 138.03125 215.378906 147.550781 209.34375 156.683594 202.703125 C 165.800781 196.101562 174.582031 189.070312 183.078125 181.730469 C 185.207031 179.894531 187.316406 178.042969 189.40625 176.167969 C 190.445312 175.226562 191.488281 174.28125 192.53125 173.335938 L 192.921875 172.984375 L 193.316406 172.605469 L 194.109375 171.855469 C 194.625 171.347656 195.132812 170.828125 195.636719 170.308594 C 199.605469 166.066406 202.941406 161.378906 205.640625 156.238281 C 206.984375 153.703125 208.179688 151.101562 209.230469 148.433594 C 210.304688 145.695312 211.089844 142.804688 211.292969 139.742188 C 211.402344 138.179688 211.304688 136.632812 211 135.09375 Z M 211 135.09375 " fill-opacity="1" fill-rule="nonzero"/></g><g clip-path="url(#3416ad1c35)"><path fill="#ffffff" d="M 366.859375 188.445312 C 366.496094 184.097656 365.476562 179.910156 363.800781 175.882812 C 362.964844 173.890625 362 171.964844 360.898438 170.105469 C 359.785156 168.273438 358.5625 166.515625 357.230469 164.839844 L 356.21875 163.597656 L 355.160156 162.398438 L 354.898438 162.101562 L 354.621094 161.8125 L 354.074219 161.234375 L 353.519531 160.664062 L 352.953125 160.109375 C 352.570312 159.746094 352.203125 159.359375 351.804688 159.007812 L 350.632812 157.941406 C 349.828125 157.253906 349.03125 156.558594 348.199219 155.914062 C 341.585938 150.664062 334.070312 146.78125 326.257812 143.953125 C 324.300781 143.257812 322.324219 142.617188 320.328125 142.035156 C 318.332031 141.453125 316.3125 141.015625 314.304688 140.527344 L 313.550781 140.347656 C 313.300781 140.289062 313.046875 140.246094 312.792969 140.195312 L 311.273438 139.902344 C 310.257812 139.710938 309.246094 139.503906 308.230469 139.324219 L 305.171875 138.871094 L 303.640625 138.640625 C 303.132812 138.566406 302.617188 138.527344 302.105469 138.46875 L 299.03125 138.140625 C 298.773438 138.113281 298.519531 138.082031 298.261719 138.0625 L 297.492188 138.011719 L 294.40625 137.816406 C 293.890625 137.789062 293.378906 137.738281 292.863281 137.734375 L 289.777344 137.667969 L 288.234375 137.636719 L 286.6875 137.664062 L 283.605469 137.726562 C 283.089844 137.726562 282.578125 137.769531 282.066406 137.796875 L 280.523438 137.890625 L 278.984375 137.980469 L 278.214844 138.027344 C 277.957031 138.042969 277.703125 138.078125 277.449219 138.101562 C 269.242188 138.824219 261.179688 140.324219 253.257812 142.597656 L 250.324219 143.523438 C 249.347656 143.832031 248.363281 144.121094 247.40625 144.488281 L 244.511719 145.53125 L 243.789062 145.792969 C 243.546875 145.878906 243.3125 145.984375 243.074219 146.078125 L 241.652344 146.664062 C 240.703125 147.054688 239.75 147.433594 238.808594 147.839844 L 236.019531 149.132812 L 234.625 149.777344 C 234.160156 149.984375 233.691406 150.195312 233.238281 150.445312 L 230.511719 151.851562 C 228.667969 152.757812 226.914062 153.8125 225.125 154.8125 L 223.792969 155.566406 C 223.351562 155.828125 222.917969 156.101562 222.480469 156.363281 L 219.863281 157.972656 C 219.429688 158.242188 218.988281 158.496094 218.5625 158.78125 L 217.28125 159.625 L 214.726562 161.316406 L 214.082031 161.734375 L 213.457031 162.167969 L 212.207031 163.042969 L 209.691406 164.792969 L 204.734375 168.398438 L 199.855469 172.105469 C 198.25 173.355469 196.628906 174.605469 195.035156 175.875 L 190.230469 179.691406 C 187.257812 182.085938 184.292969 184.488281 181.339844 186.902344 L 180.832031 186.464844 L 178.5 184.488281 C 176.949219 183.160156 175.371094 181.859375 173.800781 180.550781 C 170.632812 177.960938 167.453125 175.386719 164.171875 172.929688 C 160.894531 170.472656 157.5625 168.082031 154.152344 165.808594 C 152.421875 164.707031 150.722656 163.5625 148.941406 162.527344 C 148.0625 162.003906 147.195312 161.460938 146.304688 160.953125 L 143.617188 159.449219 C 143.167969 159.203125 142.730469 158.941406 142.269531 158.710938 L 140.90625 158.019531 C 139.992188 157.558594 139.082031 157.082031 138.160156 156.636719 L 135.367188 155.347656 C 134.902344 155.140625 134.441406 154.914062 133.96875 154.722656 L 132.546875 154.140625 C 131.601562 153.753906 130.65625 153.355469 129.703125 152.984375 L 126.8125 151.953125 C 126.328125 151.785156 125.851562 151.605469 125.367188 151.445312 L 123.90625 150.996094 L 120.96875 150.101562 L 120.804688 150.628906 L 123.652344 151.679688 L 125.082031 152.203125 C 125.550781 152.390625 126.015625 152.59375 126.484375 152.789062 L 129.289062 153.964844 C 130.210938 154.382812 131.121094 154.828125 132.039062 155.253906 L 133.414062 155.898438 C 133.871094 156.109375 134.3125 156.363281 134.761719 156.59375 L 137.457031 157.996094 C 138.34375 158.480469 139.214844 158.996094 140.09375 159.496094 L 141.410156 160.246094 C 141.851562 160.492188 142.273438 160.773438 142.707031 161.03125 L 145.289062 162.625 C 146.140625 163.164062 146.976562 163.738281 147.820312 164.292969 C 149.523438 165.386719 151.15625 166.585938 152.808594 167.746094 C 153.640625 168.332031 154.429688 168.953125 155.242188 169.554688 C 156.054688 170.15625 156.871094 170.753906 157.660156 171.386719 L 160.050781 173.261719 C 160.453125 173.570312 160.84375 173.886719 161.234375 174.210938 L 162.410156 175.171875 C 167.921875 179.660156 173.234375 184.398438 178.5 189.210938 C 176.078125 191.167969 173.652344 193.113281 171.21875 195.046875 C 164.847656 200.089844 158.382812 204.972656 151.703125 209.523438 C 145.050781 214.097656 138.171875 218.300781 131.070312 222.136719 L 128.410156 223.554688 L 127.742188 223.90625 L 127.066406 224.238281 L 125.71875 224.90625 L 123.027344 226.234375 L 118.925781 228.109375 C 118.46875 228.320312 118.015625 228.527344 117.550781 228.71875 L 114.777344 229.875 L 113.390625 230.460938 C 112.929688 230.648438 112.457031 230.816406 111.992188 230.996094 L 109.183594 232.058594 C 108.253906 232.425781 107.308594 232.726562 106.355469 233.046875 L 103.515625 234.007812 C 103.277344 234.089844 103.039062 234.160156 102.800781 234.230469 L 102.078125 234.4375 L 100.644531 234.855469 L 99.207031 235.273438 L 98.488281 235.480469 L 98.128906 235.585938 L 97.769531 235.675781 L 94.863281 236.398438 C 93.894531 236.640625 92.929688 236.902344 91.945312 237.082031 L 89.015625 237.679688 C 88.527344 237.773438 88.039062 237.886719 87.554688 237.972656 L 86.082031 238.210938 C 78.234375 239.488281 70.246094 239.921875 62.367188 239.179688 C 58.429688 238.820312 54.546875 238.144531 50.71875 237.15625 C 46.902344 236.164062 43.207031 234.835938 39.632812 233.171875 C 32.429688 229.757812 26.269531 224.996094 21.144531 218.890625 C 18.613281 215.867188 16.492188 212.582031 14.78125 209.027344 C 13.066406 205.472656 11.886719 201.75 11.238281 197.859375 C 9.972656 190.148438 11.273438 181.96875 14.726562 174.820312 C 16.464844 171.203125 18.734375 167.960938 21.535156 165.09375 C 22.945312 163.664062 24.476562 162.371094 26.121094 161.222656 C 27.777344 160.070312 29.53125 159.089844 31.378906 158.28125 L 31.171875 157.765625 C 27.230469 159.191406 23.71875 161.320312 20.628906 164.148438 C 17.527344 166.984375 14.980469 170.246094 12.984375 173.941406 C 10.96875 177.648438 9.558594 181.570312 8.753906 185.710938 C 7.921875 189.882812 7.769531 194.078125 8.292969 198.300781 C 8.84375 202.515625 9.980469 206.566406 11.703125 210.453125 C 13.429688 214.328125 15.605469 217.933594 18.234375 221.261719 C 20.867188 224.578125 23.832031 227.570312 27.121094 230.234375 C 30.414062 232.902344 33.957031 235.179688 37.75 237.0625 C 45.316406 240.816406 53.570312 242.992188 61.898438 243.875 C 70.222656 244.761719 78.644531 244.390625 86.863281 243.089844 L 88.40625 242.84375 C 88.917969 242.761719 89.425781 242.648438 89.9375 242.550781 L 92.992188 241.945312 C 94.019531 241.761719 95.019531 241.496094 96.03125 241.25 L 99.0625 240.503906 L 99.4375 240.410156 L 99.8125 240.300781 L 100.558594 240.082031 L 102.054688 239.640625 L 104.292969 238.984375 C 104.542969 238.914062 104.789062 238.839844 105.03125 238.753906 L 107.980469 237.753906 C 108.957031 237.414062 109.945312 237.097656 110.898438 236.710938 L 113.792969 235.589844 C 114.277344 235.402344 114.761719 235.226562 115.242188 235.023438 L 116.664062 234.414062 L 119.515625 233.183594 C 119.992188 232.984375 120.457031 232.765625 120.921875 232.539062 L 122.324219 231.875 L 125.125 230.542969 L 127.875 229.125 L 129.25 228.410156 L 129.933594 228.054688 L 130.613281 227.675781 L 133.320312 226.171875 L 134.671875 225.417969 C 135.117188 225.160156 135.558594 224.890625 136 224.628906 L 138.636719 223.039062 C 139.527344 222.519531 140.382812 221.953125 141.253906 221.40625 L 143.855469 219.746094 C 144.71875 219.1875 145.5625 218.601562 146.414062 218.03125 C 147.269531 217.460938 148.121094 216.886719 148.964844 216.300781 L 151.46875 214.519531 C 152.300781 213.921875 153.132812 213.335938 153.96875 212.714844 L 156.433594 210.878906 L 157.667969 209.960938 L 158.882812 209.019531 C 160.5 207.769531 162.125 206.519531 163.710938 205.222656 L 166.105469 203.300781 L 168.464844 201.34375 L 170.824219 199.382812 L 173.15625 197.402344 C 175.625 195.300781 178.078125 193.1875 180.519531 191.0625 L 180.695312 191.222656 C 183.167969 193.496094 185.640625 195.78125 188.109375 198.074219 L 187.808594 198.550781 C 187.183594 199.632812 186.558594 200.703125 185.933594 201.789062 C 184.730469 203.972656 183.609375 206.207031 182.601562 208.496094 C 180.585938 213.0625 179.082031 217.886719 178.414062 222.851562 C 177.703125 227.882812 178.035156 232.839844 179.421875 237.730469 C 180.113281 240.144531 181.097656 242.433594 182.378906 244.597656 C 183.652344 246.761719 185.207031 248.699219 187.042969 250.414062 L 187.25 250.1875 C 185.480469 248.460938 183.996094 246.515625 182.792969 244.355469 C 181.585938 242.203125 180.671875 239.9375 180.046875 237.550781 C 178.789062 232.746094 178.554688 227.890625 179.351562 222.984375 C 180.097656 218.144531 181.664062 213.449219 183.726562 209 C 184.757812 206.773438 185.902344 204.597656 187.136719 202.472656 C 187.761719 201.414062 188.40625 200.371094 189.042969 199.316406 C 189.09375 199.242188 189.140625 199.164062 189.195312 199.085938 C 192.335938 201.996094 195.492188 204.894531 198.691406 207.761719 C 199.449219 208.445312 200.222656 209.121094 200.984375 209.800781 C 201.746094 210.476562 202.511719 211.15625 203.289062 211.828125 L 205.617188 213.828125 C 206.007812 214.164062 206.394531 214.5 206.789062 214.828125 L 207.972656 215.8125 L 210.347656 217.78125 L 212.761719 219.707031 L 213.960938 220.671875 L 215.1875 221.617188 L 217.636719 223.492188 C 220.957031 225.9375 224.304688 228.355469 227.808594 230.578125 C 229.527344 231.726562 231.324219 232.765625 233.101562 233.835938 C 233.324219 233.96875 233.546875 234.105469 233.769531 234.234375 L 234.453125 234.609375 L 237.179688 236.117188 L 237.863281 236.492188 L 238.558594 236.84375 C 242.261719 238.777344 246.058594 240.503906 249.945312 242.027344 L 251.40625 242.585938 C 251.890625 242.773438 252.375 242.964844 252.863281 243.128906 L 255.816406 244.152344 L 258.804688 245.085938 C 259.300781 245.25 259.804688 245.386719 260.304688 245.523438 L 261.8125 245.941406 C 265.84375 247.035156 269.921875 247.914062 274.046875 248.578125 C 278.171875 249.230469 282.324219 249.660156 286.496094 249.871094 C 287.539062 249.925781 288.582031 249.988281 289.625 249.992188 L 291.191406 250.019531 C 291.714844 250.019531 292.230469 250.042969 292.757812 250.019531 L 295.882812 249.96875 L 299.007812 249.824219 C 303.199219 249.582031 307.355469 249.085938 311.484375 248.332031 C 315.632812 247.582031 319.710938 246.550781 323.71875 245.238281 C 327.742188 243.914062 331.632812 242.273438 335.390625 240.316406 C 339.175781 238.347656 342.734375 236.035156 346.070312 233.371094 C 347.714844 232.019531 349.34375 230.640625 350.863281 229.117188 C 355.460938 224.546875 359.15625 219.335938 361.953125 213.488281 C 363.816406 209.601562 365.183594 205.546875 366.050781 201.324219 C 366.9375 197.070312 367.207031 192.777344 366.859375 188.445312 Z M 191.675781 181.445312 C 197.871094 176.179688 204.148438 171.027344 210.710938 166.25 L 213.191406 164.480469 L 214.425781 163.597656 L 215.050781 163.160156 L 215.679688 162.742188 L 218.207031 161.054688 L 219.472656 160.21875 C 219.890625 159.9375 220.328125 159.683594 220.757812 159.410156 L 223.34375 157.8125 C 223.773438 157.546875 224.203125 157.277344 224.636719 157.015625 L 225.957031 156.265625 C 227.71875 155.273438 229.460938 154.242188 231.277344 153.347656 L 233.988281 151.964844 C 234.433594 151.726562 234.898438 151.519531 235.355469 151.3125 L 236.734375 150.6875 L 239.496094 149.433594 C 240.425781 149.042969 241.371094 148.675781 242.304688 148.296875 L 243.710938 147.734375 C 243.945312 147.640625 244.175781 147.539062 244.417969 147.457031 L 245.132812 147.207031 L 247.992188 146.203125 C 248.9375 145.851562 249.914062 145.578125 250.878906 145.285156 L 253.777344 144.414062 C 261.59375 142.28125 269.542969 140.960938 277.625 140.453125 C 277.875 140.4375 278.128906 140.410156 278.378906 140.402344 L 279.132812 140.375 L 282.15625 140.273438 C 282.660156 140.257812 283.164062 140.226562 283.667969 140.242188 L 286.6875 140.265625 L 288.199219 140.28125 L 292.722656 140.515625 C 293.222656 140.53125 293.722656 140.597656 294.226562 140.636719 L 295.726562 140.78125 L 297.230469 140.917969 L 297.980469 140.992188 C 298.230469 141.019531 298.476562 141.058594 298.726562 141.089844 L 301.714844 141.503906 C 302.210938 141.578125 302.714844 141.632812 303.207031 141.714844 L 304.691406 141.984375 L 305.316406 142.097656 C 303.464844 141.910156 301.605469 141.789062 299.75 141.707031 C 297.25 141.59375 294.738281 141.566406 292.222656 141.625 C 289.722656 141.703125 287.222656 141.835938 284.722656 142.058594 C 282.222656 142.28125 279.742188 142.582031 277.265625 142.933594 L 275.410156 143.226562 C 274.785156 143.328125 274.171875 143.410156 273.558594 143.53125 L 271.710938 143.847656 C 271.085938 143.960938 270.480469 144.070312 269.867188 144.207031 C 267.417969 144.714844 264.980469 145.28125 262.558594 145.914062 C 257.722656 147.195312 252.960938 148.726562 248.28125 150.5 C 243.601562 152.269531 239.03125 154.28125 234.566406 156.542969 C 225.59375 161.046875 217.289062 166.558594 209.648438 173.070312 C 202.214844 179.398438 195.761719 186.601562 190.285156 194.679688 C 187.972656 192.660156 185.65625 190.644531 183.332031 188.636719 C 186.105469 186.226562 188.886719 183.828125 191.675781 181.445312 Z M 360.941406 200.257812 C 360.113281 204.039062 358.839844 207.664062 357.117188 211.132812 C 354.527344 216.382812 351.136719 221.046875 346.941406 225.125 C 345.570312 226.472656 344.066406 227.707031 342.5625 228.921875 C 339.484375 231.320312 336.207031 233.402344 332.730469 235.175781 C 329.238281 236.949219 325.625 238.441406 321.894531 239.644531 C 318.144531 240.859375 314.328125 241.808594 310.449219 242.5 C 306.554688 243.195312 302.632812 243.664062 298.683594 243.902344 C 294.722656 244.136719 290.765625 244.164062 286.804688 243.976562 C 282.835938 243.800781 278.890625 243.417969 274.960938 242.824219 C 271.039062 242.214844 267.148438 241.417969 263.292969 240.429688 L 261.851562 240.046875 C 261.371094 239.921875 260.890625 239.796875 260.417969 239.652344 L 257.5625 238.796875 L 254.738281 237.855469 C 254.261719 237.703125 253.800781 237.523438 253.335938 237.351562 L 251.9375 236.835938 C 251 236.507812 250.085938 236.117188 249.164062 235.75 L 247.78125 235.195312 L 246.417969 234.59375 C 244.585938 233.824219 242.808594 232.925781 241.015625 232.066406 L 240.34375 231.738281 L 239.6875 231.390625 L 238.363281 230.6875 L 237.046875 229.984375 L 236.382812 229.632812 C 236.164062 229.515625 235.953125 229.386719 235.734375 229.261719 C 234.007812 228.257812 232.261719 227.289062 230.578125 226.210938 C 227.15625 224.136719 223.855469 221.847656 220.574219 219.523438 C 214.050781 214.8125 207.769531 209.730469 201.59375 204.46875 C 198.203125 201.578125 194.835938 198.648438 191.46875 195.714844 C 197 187.792969 203.492188 180.757812 210.945312 174.609375 C 218.550781 168.328125 226.792969 163.046875 235.671875 158.757812 C 240.089844 156.617188 244.609375 154.71875 249.234375 153.066406 C 253.855469 151.421875 258.546875 150.023438 263.316406 148.871094 C 265.695312 148.28125 268.089844 147.773438 270.492188 147.304688 C 271.09375 147.179688 271.695312 147.078125 272.296875 146.96875 L 274.109375 146.648438 C 275.3125 146.441406 276.527344 146.28125 277.734375 146.082031 C 282.574219 145.367188 287.441406 144.898438 292.332031 144.679688 C 294.773438 144.5625 297.214844 144.535156 299.65625 144.585938 C 302.097656 144.636719 304.535156 144.769531 306.964844 145.003906 C 309.390625 145.234375 311.816406 145.539062 314.222656 145.957031 C 315.417969 146.183594 316.617188 146.402344 317.808594 146.679688 L 318.703125 146.871094 C 319 146.9375 319.296875 147.015625 319.589844 147.078125 C 320.183594 147.230469 320.78125 147.363281 321.367188 147.527344 C 323.730469 148.152344 326.050781 148.921875 328.34375 149.761719 C 328.914062 149.980469 329.496094 150.175781 330.058594 150.417969 L 331.757812 151.117188 C 332.871094 151.621094 333.992188 152.113281 335.089844 152.667969 C 336.710938 153.464844 338.304688 154.320312 339.859375 155.25 C 340.136719 155.4375 340.414062 155.621094 340.695312 155.808594 C 342.324219 156.921875 343.890625 158.117188 345.398438 159.371094 C 346.164062 159.996094 346.882812 160.652344 347.617188 161.304688 L 348.675781 162.3125 C 349.035156 162.644531 349.363281 163.007812 349.71875 163.355469 C 351.074219 164.742188 352.34375 166.207031 353.519531 167.746094 C 354.695312 169.285156 355.769531 170.886719 356.742188 172.554688 C 357.691406 174.222656 358.527344 175.949219 359.242188 177.730469 C 360.667969 181.300781 361.519531 185.003906 361.792969 188.839844 C 362.054688 192.6875 361.773438 196.492188 360.941406 200.257812 Z M 126.375 233.328125 C 136.117188 228.496094 145.390625 222.683594 154.382812 216.398438 C 146.136719 223.757812 137.175781 230.113281 127.5 235.46875 C 117.820312 240.789062 107.4375 244.964844 96.613281 247.476562 C 95.9375 247.628906 95.261719 247.800781 94.582031 247.941406 L 92.539062 248.339844 L 91.515625 248.550781 C 91.175781 248.617188 90.835938 248.683594 90.492188 248.734375 L 88.433594 249.050781 C 87.066406 249.28125 85.679688 249.421875 84.304688 249.585938 C 82.925781 249.75 81.539062 249.847656 80.152344 249.960938 C 74.601562 250.347656 69.058594 250.257812 63.523438 249.703125 C 52.433594 248.566406 41.855469 245.601562 31.789062 240.804688 C 36.964844 242.578125 42.230469 244.023438 47.585938 245.144531 C 52.910156 246.257812 58.289062 246.976562 63.71875 247.300781 C 74.585938 247.925781 85.320312 246.988281 95.914062 244.484375 C 106.449219 242.03125 116.644531 238.167969 126.375 233.328125 Z M 251.179688 137.429688 C 242.140625 139.75 233.363281 142.828125 224.855469 146.667969 C 232.816406 141.710938 241.511719 137.890625 250.53125 135.109375 C 259.609375 132.335938 268.882812 130.628906 278.351562 129.980469 C 287.820312 129.335938 297.242188 129.769531 306.613281 131.28125 C 315.921875 132.808594 325.058594 135.414062 333.617188 139.25 C 324.664062 136.605469 315.554688 134.75 306.28125 133.675781 C 297.058594 132.625 287.820312 132.414062 278.558594 133.046875 C 269.300781 133.675781 260.175781 135.136719 251.179688 137.425781 Z M 251.179688 137.429688 " fill-opacity="1" fill-rule="nonzero"/></g></svg>